# xmcd
#
# Track frame offsets: 
#        150
#        13874
#        31396
#        49848
#        65935
#        86969
#        104218
#        119832
#        135691
#        149086
#        167140
#        182797
#        204055
#        221700
#        233453
#
# Disc length: 3358 seconds
#
# Revision: 0
# Processed by: cddbd v1.5.2PL0 Copyright (c) Steve Scherf et al.
# Submitted via: ExactAudioCopy v0.99pb5
#
DISCID=f00d1c0f
DTITLE=Blue Sky Riders - Finally Home
DYEAR=2013
DGENRE=Folk/Rock
TTITLE0=I'm A Rider (Finally Home)
TTITLE1=How's That Workin' For Ya
TTITLE2=Little Victories
TTITLE3=Just Say Yes
TTITLE4=Feelin' Brave
TTITLE5=You're Not The Boss Of Me
TTITLE6=Another Spring
TTITLE7=Dream
TTITLE8=A Thousand Wild Horses
TTITLE9=I Get It
TTITLE10=Say I Like It
TTITLE11=Windeer Woman
TTITLE12=As Luck Would Have It
TTITLE13=You Took The Words (Right Outta My Mouth)
TTITLE14=How About Now
EXTD=
EXTT0=
EXTT1=
EXTT2=
EXTT3=
EXTT4=
EXTT5=
EXTT6=
EXTT7=
EXTT8=
EXTT9=
EXTT10=
EXTT11=
EXTT12=
EXTT13=
EXTT14=
PLAYORDER=
